<?xml version="1.0" encoding="UTF-8" standalone="no"?>
<!-- Created with Inkscape (http://www.inkscape.org/) -->

<svg
   xmlns:dc="http://purl.org/dc/elements/1.1/"
   xmlns:cc="http://creativecommons.org/ns#"
   xmlns:rdf="http://www.w3.org/1999/02/22-rdf-syntax-ns#"
   xmlns:svg="http://www.w3.org/2000/svg"
   xmlns="http://www.w3.org/2000/svg"
   version="1.1"
   width="58.809631"
   height="62.142685"
   id="svg2"
   xml:space="preserve"><metadata
     id="metadata8"><rdf:RDF><cc:Work
         rdf:about=""><dc:format>image/svg+xml</dc:format><dc:type
           rdf:resource="http://purl.org/dc/dcmitype/StillImage" /><dc:title></dc:title></cc:Work></rdf:RDF></metadata><defs
     id="defs6" /><g
     transform="matrix(1.25,0,0,-1.25,-230.34549,211.30859)"
     id="g10"><path
       d="m 214.15139,169.04687 c -0.47725,-3.7e-4 -0.9395,-0.1145 -1.3,-0.325 l -27.875,-16.175 c -0.32649,-0.18993 -0.49427,-0.45043 -0.525,-0.7 -0.004,-0.0345 -0.0264,-0.0654 -0.025,-0.1 -0.16662,-0.56488 -0.40511,-1.78055 0.55,-2.35 l 3.575,-2.05 c -0.11718,-0.10858 -0.93226,-0.85848 -0.975,-0.9 -0.324,-0.314 -0.592,-0.688 -0.65,-0.9 -0.071,-0.254 -0.031,-1.169 0.15,-3.15 0.225,-2.477 0.287,-2.847 0.525,-3.35 0.338,-0.711 1.079,-1.536 1.7,-1.9 0.262,-0.153 4.804,-1.934 10.1,-3.95 5.296,-2.017 9.744,-3.673 9.9,-3.675 0.193,-0.005 0.473,0.167 0.85,0.5 5.113,4.538 21.106,19.151 21.15,19.325 0.156,0.621 -0.49,1.667 -1.3,2.1 -0.553,0.296 -0.974,1.055 -1.025,1.85 -0.061,0.959 0.089,1.27 0.975,2.1 0.669,0.625 0.775,0.772 0.775,1.075 0,0.15831 -0.0807,0.36306 -0.175,0.575 0.67586,0.55983 0.53733,1.72581 0.425,2.275 -8.8e-4,-0.0672 -0.027,-0.13398 -0.05,-0.2 0.0202,0.0608 0.0479,0.13821 0.05,0.2 1e-4,0.008 2.1e-4,0.0171 0,0.025 -3.8e-4,0.2765 -0.1835,0.5375 -0.55,0.75 l -14.95,8.625 c -0.3655,0.212 -0.84775,0.32537 -1.325,0.325 z m 16.25,-21.85 c -0.043,-0.016 -4.194,-3.793 -9.25,-8.375 -5.058,-4.582 -9.688,-8.75 -10.275,-9.275 -1.003,-0.898 -1.092,-0.95 -1.525,-0.95 -0.353,0 -2.699,0.832 -10.05,3.625 -5.274,2.004 -9.757,3.74 -9.975,3.85 -0.216,0.111 -0.552,0.328 -0.725,0.475 -0.174,0.145 -0.336,0.25 -0.375,0.25 -0.038,0 -0.294,-0.189 -0.575,-0.425 -0.862,-0.728 -0.874,-0.812 -0.575,-4.075 0.225,-2.457 0.287,-2.858 0.525,-3.375 0.354,-0.776 0.895,-1.422 1.55,-1.85 0.338,-0.222 3.947,-1.636 9.9,-3.9 5.149,-1.957 9.546,-3.626 9.775,-3.7 0.229,-0.074 0.414,-0.121 0.425,-0.125 0.194,-0.072 2.049,1.521 9.95,8.675 5.164,4.679 9.975,9.043 10.7,9.7 0.727,0.658 1.367,1.316 1.4,1.45 0.122,0.484 -0.161,1.081 -0.725,1.6 -1.223,1.125 -1.377,1.316 -1.5,1.725 -0.151,0.508 -0.165,1.383 -0.025,1.75 0.055,0.145 0.444,0.584 0.875,1 0.832,0.802 0.907,0.962 0.675,1.625 -0.064,0.183 -0.157,0.343 -0.2,0.325 z"
       id="path3131"
       style="fill:#ffffff;fill-opacity:1;fill-rule:nonzero;stroke:none" /><g
       transform="scale(0.1,0.1)"
       id="g3059"><path
         d="m 2275.15,1530.76 c 0.46,-0.3 0.84,-1.78 0.84,-3.32 0,-3.55 5.03,-14.25 8.8,-18.72 1.61,-1.89 2.73,-3.58 2.5,-3.77 -78.37,-71.34 -195.77,-177.21 -198.04,-178.62 -3.07,-1.91 -6.8,-2.37 -9.88,-1.21 -44.51,16.72 -171.62,65.25 -173.58,66.26 -5.92,3.06 -6.62,4.81 -7.97,20.09 -0.7,7.87 -1.03,15.04 -0.74,15.9 0.99,2.86 3.65,5.2 5.91,5.2 1.23,0 42.23,-15.22 91.13,-33.8 57.9,-22.03 90.23,-33.8 92.72,-33.82 3.63,0 8.84,4.53 95.65,83.16 50.5,45.75 92.19,82.93 92.66,82.65 z m -183.27,126.85 c -1.97,-0.07 -3.03,-0.71 -4.33,-1.56 -2.59,-1.7 -202.4,-182.42 -211.84,-191.59 -3.24,-3.14 -5.88,-6.82 -6.46,-8.94 -0.71,-2.54 -0.29,-11.66 1.52,-31.47 2.25,-24.77 2.85,-28.52 5.23,-33.55 3.38,-7.11 10.73,-15.41 16.94,-19.05 2.62,-1.53 48.11,-19.27 101.07,-39.43 52.96,-20.17 97.54,-36.72 99.1,-36.74 1.93,-0.05 4.56,1.51 8.33,4.84 51.13,45.38 211.13,191.57 211.57,193.31 1.56,6.21 -5,16.78 -13.1,21.11 -5.53,2.96 -9.7,10.49 -10.21,18.44 -0.61,9.59 0.89,12.79 9.75,21.09 6.69,6.25 7.75,7.73 7.75,10.76 0,4.85 -5.43,13.88 -10.15,16.9 -2.14,1.38 -47.35,19 -100.46,39.16 -79.37,30.11 -97.69,37 -104.71,36.73 l 0,-0.01"
         id="path3061"
         style="fill:#3b3a3c;fill-opacity:1;fill-rule:nonzero;stroke:none" /><path
         d="m 2275.05,1428.85 c 0.53,-0.32 0.95,-1.37 0.95,-2.34 0,-4.04 2.47,-9.95 6.75,-16.35 l 4.55,-6.82 -97.76,-88.64 c -53.77,-48.75 -99.28,-89.47 -101.1,-90.47 -1.83,-1 -4.02,-1.8 -4.89,-1.76 -2.09,0.12 3.57,-1.99 -93.59,34.92 -58.42,22.19 -86.59,33.36 -88.27,35.06 -2.19,2.17 -2.6,4.1 -3.8,16.93 -1.45,15.48 -1.1,18.05 2.86,20.65 2.38,1.56 6.21,0.22 92.85,-32.71 49.7,-18.89 91.79,-34.34 93.53,-34.34 2.45,0 4.94,1.62 10.93,7.03 4.26,3.85 45.63,41.3 91.91,83.23 46.28,41.91 84.55,75.95 85.08,75.61 z m 29.06,43.01 c -0.43,-0.16 -42.15,-37.79 -92.71,-83.61 -50.58,-45.82 -96.78,-87.6 -102.65,-92.85 -10.03,-8.98 -10.91,-9.53 -15.24,-9.53 -3.53,0 -26.98,8.48 -100.49,36.41 -52.74,20.04 -97.64,37.36 -99.82,38.46 -2.16,1.11 -5.35,3.19 -7.08,4.66 -1.74,1.45 -3.48,2.66 -3.87,2.66 -0.38,0 -2.98,-1.93 -5.79,-4.29 -8.62,-7.28 -8.74,-8.15 -5.75,-40.78 2.25,-24.57 2.86,-28.53 5.24,-33.7 3.54,-7.76 8.96,-14.26 15.51,-18.54 3.38,-2.22 39.43,-16.44 98.96,-39.08 51.49,-19.57 95.5,-36.19 97.79,-36.93 2.29,-0.74 4.25,-1.35 4.36,-1.39 1.94,-0.72 20.41,15.41 99.42,86.95 51.64,46.79 99.83,90.45 107.08,97.02 7.27,6.58 13.49,13.04 13.82,14.38 1.22,4.84 -1.45,10.93 -7.09,16.12 -12.23,11.25 -13.79,13.01 -15.02,17.1 -1.51,5.08 -1.65,13.76 -0.25,17.43 0.55,1.45 4.53,6.08 8.84,10.24 8.32,8.02 9.01,9.62 6.69,16.25 -0.64,1.83 -1.52,3.2 -1.95,3.02 l 0,0"
         id="path3063"
         style="fill:#66686c;fill-opacity:1;fill-rule:nonzero;stroke:none" /><path
         d="m 2130.21,1684.09 8.25,6.23 12.67,-6.23 152.73,-88.82 -1.71,-10.73 -287.87,-163.76 -167.15,91.36 0,9.6 283.08,162.35"
         id="path3065"
         style="fill:#ffffff;fill-opacity:1;fill-rule:nonzero;stroke:none" /><path
         d="m 1958.84,1486.91 c -6.22,3.57 -16.25,3.57 -22.41,0 -6.18,-3.59 -6.2,-9.4 0.02,-13.02 6.26,-3.61 16.34,-3.57 22.51,0 6.17,3.62 6.13,9.4 -0.12,13.02"
         id="path3067"
         style="fill:#100f0d;fill-opacity:1;fill-rule:nonzero;stroke:none" /><path
         d="m 1907.61,1540.26 143.57,-82.87 221.01,128.42 -143.57,82.91 -221.01,-128.46"
         id="path3069"
         style="fill:#211d1d;fill-opacity:1;fill-rule:nonzero;stroke:none" /><path
         d="m 2297.41,1589.77 -278.67,-161.95 c -3.46,-2.01 -9.16,-2.01 -12.64,0 l -149.39,86.25 c -3.47,2.01 -3.5,5.31 -0.04,7.32 l 278.67,161.95 c 3.46,2.01 9.14,2.01 12.63,0 l 149.39,-86.27 c 3.49,-2 3.5,-5.3 0.05,-7.3 z m 6.81,11.29 -149.41,86.24 c -7.31,4.24 -19.14,4.21 -26.35,0 l -278.68,-161.93 c -7.22,-4.2 -7.24,-11.05 0.08,-15.28 l 149.41,-86.26 c 7.33,-4.22 19.14,-4.19 26.36,0 l 278.67,161.95 c 7.2,4.19 7.25,11.03 -0.08,15.28"
         id="path3071"
         style="fill:#100f0d;fill-opacity:1;fill-rule:nonzero;stroke:none" /><path
         d="m 2309.65,1593.82 c 0.19,-2.89 -1.54,-5.83 -5.35,-8.04 l -278.67,-161.95 c -7.22,-4.19 -19.03,-4.22 -26.36,0 l -149.41,86.26 c -4.02,2.33 -5.74,5.45 -5.35,8.48 -1.64,-5.19 -4.68,-18.7 5.35,-24.68 l 149.41,-86.26 c 7.33,-4.23 19.14,-4.2 26.36,0 l 278.67,161.94 c 8.45,5.2 6.55,18.63 5.35,24.25"
         id="path3073"
         style="fill:#100f0d;fill-opacity:1;fill-rule:nonzero;stroke:none" /></g></g></svg>